# xmcd
#
# Track frame offsets:
#       150
#       14374
#       27176
#       43542
#       66440
#       89635
#       108997
#       125035
#       145481
#       163647
#       185905
#
# Disc length: 2763 seconds
#
# Revision: 0
# Processed by: cddbd v1.4PL0 Copyright (c) Steve Scherf et al.
# Submitted via: WhereIsIt 3.25
#
DISCID=a20ac90b
DTITLE=Bruce Woodley - I Am Australian
DYEAR=1900
DGENRE=
TTITLE0=I Am Australian Overture
TTITLE1=I Am Dance
TTITLE2=Waltzing Mathilda
TTITLE3=Clancy Of The Overflow
TTITLE4=The Bush Girl
TTITLE5=Can We Learn To Get Along
TTITLE6=Common Ground
TTITLE7=Ballad Of A Working Man
TTITLE8=Last Night I Had A Dream
TTITLE9=All These Things I Am
TTITLE10=I Am Australian
EXTD=
EXTT0=
EXTT1=
EXTT2=
EXTT3=
EXTT4=
EXTT5=
EXTT6=
EXTT7=
EXTT8=
EXTT9=
EXTT10=
PLAYORDER=
